<svg viewBox="0 0 269.37001037597656 42" xmlns="http://www.w3.org/2000/svg" data-logo="logo">
        <g transform="translate(0, 0.5)
    rotate(0 20.5 20.5)" id="logogram" style="opacity: 1;"><path fill="#008000" d="M20.9053 40.0799C31.951 40.0799 40.9053 31.1256 40.9053 20.0799C40.9053 9.03427 31.951 0.0799561 20.9053 0.0799561C9.85956 0.0799561 0.905273 9.03427 0.905273 20.0799C0.905273 31.1256 9.85956 40.0799 20.9053 40.0799ZM27.1446 9.3968C27.4483 8.31801 26.4014 7.68008 25.4453 8.36125L12.0984 17.8695C11.0615 18.6082 11.2246 20.0799 12.3434 20.0799H15.858V20.0527H22.7078L17.1265 22.022L14.666 30.7631C14.3623 31.8419 15.4091 32.4798 16.3653 31.7986L29.7122 22.2904C30.7491 21.5517 30.5859 20.0799 29.4672 20.0799H24.1374L27.1446 9.3968Z" clip-rule="evenodd" fill-rule="evenodd"></path></g>
        <g transform="translate(47, 0.8500000000000014)" id="logotype" style="opacity: 1;"><path d="M18.36 34.52L18.36 34.52Q15.28 34.52 12.77 33.48Q10.27 32.42 8.78 30.41Q7.29 28.40 7.29 25.46L7.29 25.46L13.53 25.46Q13.70 27.42 15.00 28.36Q16.29 29.31 18.22 29.31L18.22 29.31Q20.11 29.31 21.33 28.64Q22.56 27.98 22.56 26.79L22.56 26.79Q22.56 25.77 21.82 25.28Q21.09 24.80 19.58 24.34L19.58 24.34L13.98 22.70Q12.34 22.20 10.87 21.45Q9.39 20.70 8.50 19.37Q7.61 18.04 7.61 15.76L7.61 15.76Q7.61 13.14 8.87 11.23Q10.13 9.32 12.44 8.27Q14.75 7.22 17.87 7.22L17.87 7.22Q22.38 7.22 25.20 9.43Q28.02 11.63 28.44 15.69L28.44 15.69L22.14 15.69Q21.40 12.37 17.62 12.37L17.62 12.37Q15.80 12.37 14.84 13.07Q13.88 13.77 13.88 14.96L13.88 14.96Q13.88 15.83 14.47 16.43Q15.07 17.02 16.36 17.41L16.36 17.41L22.21 19.16Q25.57 20.14 27.11 21.85Q28.65 23.57 28.65 26.34L28.65 26.34Q28.65 28.79 27.37 30.62Q26.09 32.46 23.78 33.49Q21.47 34.52 18.36 34.52ZM35.02 11.88L35.02 11.88Q33.65 11.88 32.72 11.07Q31.80 10.27 31.80 8.97L31.80 8.97Q31.80 7.71 32.72 6.91Q33.65 6.10 35.02 6.10L35.02 6.10Q36.34 6.10 37.27 6.91Q38.20 7.71 38.20 8.97L38.20 8.97Q38.20 10.27 37.27 11.07Q36.34 11.88 35.02 11.88ZM37.85 34L32.18 34L32.18 14.05L37.85 14.05L37.85 34ZM47.16 34L41.49 34L41.49 22.10Q41.49 19.51 42.56 17.55Q43.63 15.59 45.52 14.47Q47.41 13.35 49.85 13.35L49.85 13.35Q52.06 13.35 53.91 14.26Q55.77 15.17 56.92 16.78L56.92 16.78Q58.11 15.17 59.95 14.26Q61.79 13.35 63.96 13.35L63.96 13.35Q66.41 13.35 68.27 14.47Q70.12 15.59 71.17 17.55Q72.22 19.51 72.22 22.10L72.22 22.10L72.22 34L66.52 34L66.52 22.10Q66.52 20.49 65.61 19.47Q64.69 18.46 63.16 18.46L63.16 18.46Q61.65 18.46 60.69 19.47Q59.73 20.49 59.73 22.10L59.73 22.10L59.73 34L54.05 34L54.05 22.10Q54.05 20.49 53.09 19.47Q52.13 18.46 50.59 18.46L50.59 18.46Q49.09 18.46 48.12 19.47Q47.16 20.49 47.16 22.10L47.16 22.10L47.16 34ZM81.46 40.30L75.79 40.30L75.79 14.05L80.59 14.05L81.04 16.99Q82.06 15.31 83.70 14.42Q85.35 13.52 87.24 13.52L87.24 13.52Q89.90 13.52 91.86 14.85Q93.82 16.18 94.90 18.53Q95.99 20.88 95.99 23.95L95.99 23.95Q95.99 26.79 95.18 28.79Q94.38 30.78 93.05 32.06Q91.72 33.34 90.11 33.93Q88.50 34.52 86.92 34.52L86.92 34.52Q85.28 34.52 83.86 33.90Q82.44 33.27 81.46 32.04L81.46 32.04L81.46 40.30ZM85.73 29.87L85.73 29.87Q87.80 29.87 89.00 28.35Q90.21 26.82 90.21 24.20L90.21 24.20Q90.21 21.57 89.00 20.03Q87.80 18.49 85.73 18.49L85.73 18.49Q83.77 18.49 82.62 20.03Q81.46 21.57 81.46 24.20L81.46 24.20Q81.46 26.82 82.62 28.35Q83.77 29.87 85.73 29.87ZM107.19 34L104.39 34Q101.94 34 100.45 32.51Q98.96 31.02 98.96 28.57L98.96 28.57L98.96 7.75L104.63 7.75L104.63 27.59Q104.63 28.26 105.05 28.68Q105.47 29.10 106.10 29.10L106.10 29.10L107.19 29.10L107.19 34ZM119.44 34.52L119.44 34.52Q116.39 34.52 114.15 33.25Q111.91 31.97 110.67 29.61Q109.43 27.24 109.43 24.02L109.43 24.02Q109.43 20.80 110.65 18.46Q111.88 16.11 114.10 14.82Q116.32 13.52 119.33 13.52L119.33 13.52Q122.45 13.52 124.63 14.92Q126.82 16.32 127.92 18.98Q129.03 21.64 128.85 25.39L128.85 25.39L115.13 25.39Q115.41 27.63 116.60 28.89Q117.79 30.15 119.68 30.15L119.68 30.15Q121.22 30.15 122.20 29.40Q123.18 28.64 123.43 27.56L123.43 27.56L128.71 27.56Q128.36 29.73 127.08 31.29Q125.81 32.84 123.85 33.69Q121.89 34.52 119.44 34.52ZM119.37 17.86L119.37 17.86Q117.65 17.86 116.53 18.97Q115.41 20.07 115.13 21.92L115.13 21.92L123.25 21.92Q123.11 19.72 121.96 18.79Q120.80 17.86 119.37 17.86ZM151.50 34.52L151.50 34.52Q147.68 34.52 144.91 32.86Q142.15 31.20 140.65 28.14Q139.14 25.07 139.14 20.88L139.14 20.88Q139.14 16.67 140.63 13.61Q142.12 10.55 144.86 8.89Q147.61 7.22 151.32 7.22L151.32 7.22Q154.65 7.22 157.11 8.48Q159.58 9.74 160.98 11.98Q162.38 14.22 162.45 17.13L162.45 17.13L156.29 17.13Q156.01 15.17 154.73 13.91Q153.46 12.65 151.39 12.65L151.39 12.65Q148.63 12.65 147.03 14.89Q145.44 17.13 145.44 20.91L145.44 20.91Q145.44 24.62 147.03 26.89Q148.63 29.17 151.56 29.17L151.56 29.17Q153.25 29.17 154.28 28.47Q155.31 27.77 155.84 26.63Q156.36 25.49 156.50 24.20L156.50 24.20L162.63 24.20Q162.49 27.45 161.07 29.77Q159.65 32.08 157.22 33.30Q154.78 34.52 151.50 34.52ZM172.78 34L166.69 34L166.69 7.75L177.12 7.75Q182.02 7.75 184.64 9.73Q187.27 11.70 187.27 15.38L187.27 15.38Q187.27 17.55 186.11 19.16Q184.96 20.77 182.82 21.64L182.82 21.64Q185.24 22.41 186.08 23.94Q186.92 25.46 186.92 27.80L186.92 27.80L186.92 34L180.90 34L180.90 28.43Q180.90 24.41 177.12 24.41L177.12 24.41L172.78 24.41L172.78 34ZM172.78 12.96L172.78 19.27L177.12 19.27Q178.97 19.27 179.97 18.41Q180.97 17.55 180.97 15.97L180.97 15.97Q180.97 14.54 179.97 13.75Q178.97 12.96 177.12 12.96L177.12 12.96L172.78 12.96ZM206.10 34.52L206.10 34.52Q204.21 34.52 203.05 33.39Q201.90 32.25 201.34 30.11L201.34 30.11L197.63 15.41Q197.59 15.34 197.52 15.36Q197.45 15.38 197.45 15.45L197.45 15.45L197.45 33.97L191.47 33.97L191.47 12.65Q191.47 10.06 192.94 8.64Q194.41 7.22 196.61 7.22L196.61 7.22Q200.71 7.22 202.04 12.23L202.04 12.23L205.96 26.58Q205.99 26.68 206.06 26.68Q206.13 26.68 206.17 26.58L206.17 26.58L209.98 12.23Q210.65 9.78 212.03 8.50Q213.41 7.22 215.55 7.22L215.55 7.22Q217.75 7.22 219.20 8.64Q220.66 10.06 220.66 12.65L220.66 12.65L220.66 33.97L214.71 33.97L214.71 15.20Q214.71 15.13 214.64 15.10Q214.57 15.06 214.53 15.17L214.53 15.17L210.79 30.11Q210.26 32.25 209.12 33.39Q207.99 34.52 206.10 34.52Z" fill="#008000"></path></g>
        
      </svg>